<?xml version="1.0" encoding="utf-8"?>
<!-- Generator: Adobe Illustrator 18.1.1, SVG Export Plug-In . SVG Version: 6.00 Build 0)  -->
<svg version="1.1" id="Layer_1" xmlns="http://www.w3.org/2000/svg" xmlns:xlink="http://www.w3.org/1999/xlink" x="0px" y="0px"
	 viewBox="0 0 40.9 35.4" enable-background="new 0 0 40.9 35.4" xml:space="preserve">
<g>
	<polygon fill="#3B3C3C" points="24.4,28.9 23.4,26.2 17.5,26.2 16.6,28.9 13.5,28.9 13.5,29.9 27.4,29.9 27.4,28.9 	"/>
	<path fill="#3B3C3C" d="M31.9,5.5H9.1C8.3,5.5,7.6,6.2,7.6,7v16.8c0,0.8,0.6,1.4,1.4,1.4h22.8c0.8,0,1.4-0.6,1.4-1.4V7
		C33.3,6.2,32.7,5.5,31.9,5.5z M30.8,21.5H10.1V8h20.7V21.5z"/>
	<polygon fill="#3B3C3C" points="26.1,13.4 23.2,11 23.8,14.7 24.6,13.9 25.4,15.4 26,15 25.1,13.6 	"/>
</g>
</svg>
