<?xml version="1.0" encoding="utf-8"?>
<!-- Generator: Adobe Illustrator 18.1.1, SVG Export Plug-In . SVG Version: 6.00 Build 0)  -->
<svg version="1.1" id="Layer_1" xmlns="http://www.w3.org/2000/svg" xmlns:xlink="http://www.w3.org/1999/xlink" x="0px" y="0px"
	 viewBox="0 0 40.9 35.4" enable-background="new 0 0 40.9 35.4" xml:space="preserve">
<g>
	<path fill="#3B3C3C" d="M27.2,3.4h-6.7h-6.7c-1.6,0-2.8,1.1-2.8,3.7v20c0,3.2,1.5,4.9,3.7,4.9h5.9h5.9c2.2,0,3.7-1.7,3.7-4.9v-20
		C30,4.5,28.8,3.4,27.2,3.4z M18.1,28.6v1.3h-0.6c-0.7,0-1.3-0.6-1.3-1.3c0-0.7,0.6-1.3,1.3-1.3h0.6V28.6
		C18.1,28.6,18.1,28.6,18.1,28.6C18.1,28.6,18.1,28.6,18.1,28.6z M22,29.9h-3.1v-2.6H22V29.9z M23.4,29.9h-0.6v-1.3c0,0,0,0,0,0
		c0,0,0,0,0,0v-1.3h0.6c0.7,0,1.3,0.6,1.3,1.3C24.7,29.3,24.1,29.9,23.4,29.9z M27.7,25.1H13.2V5.7h14.5V25.1z"/>
</g>
</svg>
