<?xml version="1.0" encoding="utf-8"?>
<!-- Generator: Adobe Illustrator 18.1.1, SVG Export Plug-In . SVG Version: 6.00 Build 0)  -->
<svg version="1.1" id="Layer_1" xmlns="http://www.w3.org/2000/svg" xmlns:xlink="http://www.w3.org/1999/xlink" x="0px" y="0px"
	 viewBox="279 372 54 42" enable-background="new 279 372 54 42" xml:space="preserve">
<g>
	<path fill="#3B3C3C" d="M322.1,379.9h-32.3c-0.8,0-1.4,0.6-1.4,1.4v23.4c0,0.8,0.6,1.4,1.4,1.4h32.3c0.8,0,1.4-0.6,1.4-1.4v-23.4
		C323.6,380.5,322.9,379.9,322.1,379.9z M320.2,381.1c0.6,0,1,0.5,1,1c0,0.6-0.5,1-1,1s-1-0.5-1-1
		C319.2,381.5,319.6,381.1,320.2,381.1z M316.8,381.1c0.6,0,1,0.5,1,1c0,0.6-0.5,1-1,1s-1-0.5-1-1
		C315.8,381.5,316.3,381.1,316.8,381.1z M313.4,381.1c0.6,0,1,0.5,1,1c0,0.6-0.5,1-1,1s-1-0.5-1-1
		C312.4,381.5,312.9,381.1,313.4,381.1z M321.5,404.2h-31v-19.8h31V404.2z"/>
	<polygon fill="#3B3C3C" points="296.7,390.4 294,389.3 296.7,388.2 296.7,387.2 292.6,388.9 292.6,389.7 296.7,391.4 	"/>
	<polygon fill="#3B3C3C" points="299.7,386.5 298.8,386.5 297,392.4 297.9,392.4 	"/>
	<polygon fill="#3B3C3C" points="304.1,388.9 300.1,387.2 300.1,388.2 302.8,389.3 300.1,390.4 300.1,391.4 304.1,389.7 	"/>
</g>
</svg>
