<?xml version="1.0" encoding="utf-8"?>
<!-- Generator: Adobe Illustrator 18.1.1, SVG Export Plug-In . SVG Version: 6.00 Build 0)  -->
<svg version="1.1" id="Layer_1" xmlns="http://www.w3.org/2000/svg" xmlns:xlink="http://www.w3.org/1999/xlink" x="0px" y="0px"
	 viewBox="0 0 40.9 35.4" enable-background="new 0 0 40.9 35.4" xml:space="preserve">
<g>
	<path fill="#3B3C3C" d="M31.2,5.6h-4.7V4.3h-3.3c0-1.5-1.2-2.7-2.7-2.7c-1.5,0-2.7,1.2-2.7,2.7h-3.3v1.3H9.8C9,5.6,8.3,6.3,8.3,7.1
		v25.3c0,0.8,0.6,1.4,1.4,1.4h21.4c0.8,0,1.4-0.6,1.4-1.4V7.1C32.6,6.3,32,5.6,31.2,5.6z M20.5,2.6c0.9,0,1.7,0.8,1.7,1.7
		c0,0.9-0.8,1.7-1.7,1.7s-1.7-0.8-1.7-1.7C18.8,3.4,19.6,2.6,20.5,2.6z M29.7,29.3c0,0.6-0.5,1.1-1.1,1.1H12.3
		c-0.6,0-1.1-0.5-1.1-1.1V10.1c0-0.6,0.5-1.1,1.1-1.1h2.2v1.2h11.9V9h2.2c0.6,0,1.1,0.5,1.1,1.1V29.3z"/>
	<polygon fill="#3B3C3C" points="15.1,14.8 14.2,13.9 13,15 13.9,16 15.1,17.1 16.3,16 20,12.2 18.8,11.1 	"/>
	<polygon fill="#3B3C3C" points="15.1,20.9 14.2,19.9 13,21.1 13.9,22 15.1,23.2 16.3,22 20,18.3 18.8,17.1 	"/>
	<polygon fill="#3B3C3C" points="15.1,26.9 14.2,26 13,27.2 13.9,28.1 15.1,29.3 16.3,28.1 20,24.4 18.8,23.2 	"/>
</g>
</svg>
