<?xml version="1.0" encoding="utf-8"?>
<!-- Generator: Adobe Illustrator 18.1.1, SVG Export Plug-In . SVG Version: 6.00 Build 0)  -->
<svg version="1.1" id="Layer_1" xmlns="http://www.w3.org/2000/svg" xmlns:xlink="http://www.w3.org/1999/xlink" x="0px" y="0px"
	 viewBox="0 0 40.9 35.4" enable-background="new 0 0 40.9 35.4" xml:space="preserve">
<path fill="#3B3C3C" d="M35.5,18.3l-7.4-5.7v3.7H28c-2.1,0-4.1,0.8-5.6,2v-6.6h3.7l-5.7-7.4l-5.7,7.4h3.7v6.6c-1.5-1.3-3.4-2-5.6-2
	h-0.1v-3.7l-7.4,5.7l7.4,5.7v-3.7h0.1c2.5,0,4.6,2,4.6,4.5v3.3c0,1.7,1.3,3,3,3c1.7,0,3-1.3,3-3v-3.3c0-2.5,2-4.5,4.6-4.5h0.1V24
	L35.5,18.3z"/>
</svg>
