<?xml version="1.0" encoding="utf-8"?>
<!-- Generator: Adobe Illustrator 18.1.1, SVG Export Plug-In . SVG Version: 6.00 Build 0)  -->
<svg version="1.1" id="Layer_1" xmlns="http://www.w3.org/2000/svg" xmlns:xlink="http://www.w3.org/1999/xlink" x="0px" y="0px"
	 viewBox="0 0 40.9 35.4" enable-background="new 0 0 40.9 35.4" xml:space="preserve">
<g>
	<path fill="#3B3C3C" d="M23.1,29.8h9.1v-1.9h-9.1c0.1,0.3,0.2,0.6,0.2,1C23.3,29.2,23.2,29.5,23.1,29.8z"/>
	<path fill="#3B3C3C" d="M17.8,27.8H8.8v1.9h9.1c-0.1-0.3-0.2-0.6-0.2-1C17.6,28.5,17.7,28.2,17.8,27.8z"/>
	<path fill="#3B3C3C" d="M22,27.8c-0.2-0.2-0.3-0.4-0.6-0.6v-2.4h-1.9v2.4c-0.2,0.1-0.4,0.4-0.6,0.6c-0.2,0.3-0.3,0.6-0.3,1
		c0,0.4,0.1,0.7,0.3,1c0.3,0.5,0.9,0.9,1.6,0.9s1.2-0.4,1.6-0.9c0.2-0.3,0.3-0.6,0.3-1C22.3,28.5,22.2,28.1,22,27.8z"/>
	<path fill="#3B3C3C" d="M29.4,18.1C29.4,18.1,29.4,18.1,29.4,18.1l-17.8,0c0,0,0,0-0.1,0c-1.5,0-2.8,1.3-2.8,2.8
		c0,1.6,1.3,2.9,2.9,2.9h17.7c1.6,0,2.9-1.3,2.9-2.9C32.2,19.4,31,18.2,29.4,18.1z M16.8,21.8h-5.2c-0.4,0-0.8-0.4-0.8-0.8
		c0-0.4,0.4-0.8,0.8-0.8h5.2c0.4,0,0.8,0.4,0.8,0.8C17.6,21.4,17.2,21.8,16.8,21.8z"/>
	<path fill="#3B3C3C" d="M32.2,7.6c0-1.6-1.3-2.9-2.9-2.9H11.6C10,4.7,8.8,6,8.8,7.6c0,1.6,1.3,2.8,2.8,2.8c0,0,0,0,0,0h17.7
		c0,0,0,0,0,0C30.9,10.4,32.2,9.2,32.2,7.6z M16.8,8.4h-5.2c-0.4,0-0.8-0.4-0.8-0.8c0-0.4,0.4-0.8,0.8-0.8h5.2
		c0.4,0,0.8,0.4,0.8,0.8C17.6,8,17.2,8.4,16.8,8.4z"/>
	<path fill="#3B3C3C" d="M8.8,14.3c0,1.5,1.2,2.8,2.8,2.8c0,0,0,0,0.1,0h17.7c0,0,0,0,0.1,0c1.5,0,2.8-1.3,2.8-2.8
		c0-1.6-1.3-2.8-2.8-2.9c0,0,0,0,0,0H11.6c0,0,0,0,0,0C10,11.5,8.8,12.7,8.8,14.3z M11.6,13.5h5.2c0.4,0,0.8,0.4,0.8,0.8
		c0,0.4-0.4,0.8-0.8,0.8h-5.2c-0.4,0-0.8-0.4-0.8-0.8C10.8,13.9,11.2,13.5,11.6,13.5z"/>
	<path fill="#3F454F" d="M11.6,17.1C11.6,17.1,11.6,17.1,11.6,17.1C11.6,17.1,11.6,17.1,11.6,17.1l17.7,0c0,0,0,0,0.1,0
		c0,0,0,0-0.1,0H11.6z"/>
	<polygon fill="#3F454F" points="29.3,11.4 29.4,11.4 29.3,11.4 11.6,11.4 11.6,11.4 11.6,11.4 	"/>
</g>
</svg>
