<?xml version="1.0" encoding="utf-8"?>
<!-- Generator: Adobe Illustrator 18.1.1, SVG Export Plug-In . SVG Version: 6.00 Build 0)  -->
<svg version="1.1" id="Calendar" xmlns="http://www.w3.org/2000/svg" xmlns:xlink="http://www.w3.org/1999/xlink" x="0px" y="0px"
	 viewBox="0 0 64 64" enable-background="new 0 0 64 64" xml:space="preserve">
<g>
	<path fill="#0087CC" d="M14.7,20.4h34.7c0.5,0,0.8-0.4,0.8-0.8v-2.1c0-0.5-0.4-0.8-0.8-0.8H14.7c-0.5,0-0.8,0.4-0.8,0.8v2.1
		C13.8,20,14.2,20.4,14.7,20.4z"/>
	<path fill="#0087CC" d="M50.2,22.8c0-0.5-0.4-0.8-0.8-0.8c0,0,0,0,0,0l-34.7,0c-0.2,0-0.4,0.1-0.6,0.2c-0.2,0.2-0.2,0.4-0.2,0.6
		l0,25c0,0.2,0.1,0.4,0.2,0.6c0.2,0.2,0.4,0.2,0.6,0.2c0,0,0,0,0,0l34.7,0c0.5,0,0.8-0.4,0.8-0.8L50.2,22.8z M46.6,45.8l-29.2,0
		c0,0,0,0,0,0c-0.2,0-0.4-0.1-0.6-0.2c-0.2-0.2-0.2-0.4-0.2-0.6l0-19.5c0-0.5,0.4-0.8,0.8-0.8l29.2,0c0,0,0,0,0,0
		c0.2,0,0.4,0.1,0.6,0.2c0.2,0.2,0.2,0.4,0.2,0.6l0,19.5C47.5,45.4,47.1,45.8,46.6,45.8z"/>
	<rect x="18.2" y="26.4" fill="#0087CC" width="8.1" height="4.8"/>
	<rect x="28" y="26.4" fill="#0087CC" width="8.1" height="4.8"/>
	<rect x="37.7" y="26.4" fill="#0087CC" width="8.1" height="4.8"/>
	<rect x="18.2" y="32.9" fill="#0087CC" width="8.1" height="4.8"/>
	<rect x="28" y="32.9" fill="#0087CC" width="8.1" height="4.8"/>
	<rect x="18.2" y="39.4" fill="#0087CC" width="8.1" height="4.8"/>
	<rect x="28" y="39.4" fill="#0087CC" width="8.1" height="4.8"/>
	<rect x="37.7" y="32.9" fill="#0087CC" width="8.1" height="4.8"/>
</g>
</svg>
