<?xml version="1.0" encoding="utf-8"?>
<!-- Generator: Adobe Illustrator 18.1.1, SVG Export Plug-In . SVG Version: 6.00 Build 0)  -->
<svg version="1.1" id="Layer_1" xmlns="http://www.w3.org/2000/svg" xmlns:xlink="http://www.w3.org/1999/xlink" x="0px" y="0px"
	 viewBox="0 0 64 64" enable-background="new 0 0 64 64" xml:space="preserve">
<g>
	<path fill="#16467A" d="M38.4,39.9l2.7-3.4l-1.3-1.1c0.4-1,0.7-2.1,0.7-3.2c0-1.3-0.3-2.5-0.8-3.5l1.5-1.2l-2.7-3.4l-1.5,1.2
		c-0.8-0.5-1.7-0.9-2.6-1.2l0-2.1l-4.3,0l0,2.1c-0.9,0.3-1.7,0.7-2.5,1.2l-1.7-1.3l-2.7,3.4l1.7,1.3c-0.5,1-0.7,2.1-0.7,3.3
		c0,1.1,0.2,2.1,0.6,3.1L23,36.5l2.7,3.4l1.4-1.2c0.8,0.6,1.7,1.1,2.7,1.4l0,1.8l4.3,0l0-1.7c1-0.3,2-0.7,2.8-1.4L38.4,39.9z
		 M36,32.4c-0.1,1.3-0.8,2.4-1.8,3.1c-0.3,0.2-0.5,0.3-0.8,0.4c-0.4,0.1-0.8,0.2-1.2,0.2c-0.5,0-1-0.1-1.4-0.3
		c-0.3-0.1-0.6-0.3-0.9-0.5c-1-0.7-1.6-1.8-1.6-3.1c0,0,0,0,0-0.1c0-0.1,0-0.3,0-0.4c0.1-1.1,0.7-2.1,1.6-2.7
		c0.4-0.3,0.8-0.5,1.2-0.6c0.4-0.1,0.7-0.2,1.1-0.2c0.3,0,0.6,0,0.9,0.1c0.4,0.1,0.8,0.3,1.1,0.5c1,0.6,1.6,1.6,1.8,2.7
		c0,0.2,0.1,0.4,0.1,0.6C36,32.3,36,32.4,36,32.4"/>
	<path fill="#16467A" d="M57.9,14.6c-2.5-3.1-7-3.6-10.1-1.2c-3.1,2.5-3.6,7-1.2,10.1c1.8,2.3,4.7,3.2,7.3,2.5
		c2.3,8.5-0.5,18-7.8,23.8h0c-4.8,3.8-10.7,5.4-16.7,4.7c-6-0.7-11.4-3.7-15.2-8.5c-7.8-9.8-6.1-24.2,3.7-31.9
		c7.2-5.6,16.7-6.3,24.3-2.4l4.1-3.2C36.8,2.7,24.2,3.1,15,10.4C3,19.8,1,37.1,10.4,49c4.6,5.8,11.1,9.4,18.4,10.3
		c7.3,0.9,14.5-1.2,20.3-5.7c9.3-7.4,12.6-19.7,9-30.3C59.9,20.7,59.9,17.2,57.9,14.6 M50.8,17.2c1-0.8,2.5-0.6,3.4,0.4
		c0.8,1,0.6,2.5-0.4,3.4c-1,0.8-2.5,0.6-3.4-0.4C49.6,19.5,49.7,18,50.8,17.2"/>
</g>
</svg>
