<?xml version="1.0" encoding="utf-8"?>
<!-- Generator: Adobe Illustrator 18.1.1, SVG Export Plug-In . SVG Version: 6.00 Build 0)  -->
<svg version="1.1" id="Layer_1" xmlns="http://www.w3.org/2000/svg" xmlns:xlink="http://www.w3.org/1999/xlink" x="0px" y="0px"
	 viewBox="0 0 64 64" enable-background="new 0 0 64 64" xml:space="preserve">
<g>
	<path fill="#EC6523" d="M34.1,45.2v-4.3c4.8,0,8.7-3.9,8.7-8.7c0-4.8-3.9-8.7-8.7-8.7c-4.5,0-8.3,3.5-8.7,8c0,0.3,0,3.3,0,3.8h-4.3
		c0,0,0-3.7,0-4.1c0.5-6.7,6.2-12,13-12c7.2,0,13,5.8,13,13C47.1,39.4,41.3,45.2,34.1,45.2"/>
	<polygon fill="#EC6523" points="23.2,40.1 14.9,34 17.5,30.5 23.4,34.9 30.6,30.4 32.9,34.1 	"/>
	<path fill="#EC6523" d="M54.6,18l0.3-0.1c2.7-1,4.6-3.6,4.6-6.5c0-3.8-3.1-6.9-6.9-6.9c-2.9,0-5.5,1.8-6.5,4.6L46,9.4H18.3V4.5H4.5
		v13.8h4.9V46l-0.3,0.1c-2.7,1-4.6,3.6-4.6,6.5c0,3.8,3.1,6.9,6.9,6.9c2.9,0,5.5-1.8,6.5-4.6l0.1-0.3h27.8v4.9h13.8V45.7h-4.9V18z
		 M52.6,8.5c1.6,0,2.8,1.3,2.8,2.8c0,1.6-1.3,2.8-2.8,2.8c-1.6,0-2.8-1.3-2.8-2.8C49.8,9.8,51.1,8.5,52.6,8.5 M8.5,8.5h5.7v5.7H8.5
		V8.5z M11.4,55.4c-1.6,0-2.8-1.3-2.8-2.8c0-1.6,1.3-2.8,2.8-2.8c1.6,0,2.8,1.3,2.8,2.8C14.2,54.2,12.9,55.4,11.4,55.4 M45.7,50.6
		H18l-0.1-0.3c-0.7-1.9-2.3-3.5-4.2-4.2L13.4,46V18.3h4.9v-4.9H46l0.1,0.3c0.7,1.9,2.3,3.5,4.2,4.2l0.3,0.1v27.8h-4.9V50.6z
		 M55.5,55.4h-5.7v-5.7h5.7V55.4z"/>
</g>
</svg>
