<?xml version="1.0" encoding="utf-8"?>
<!-- Generator: Adobe Illustrator 18.1.1, SVG Export Plug-In . SVG Version: 6.00 Build 0)  -->
<svg version="1.1" id="Layer_1" xmlns="http://www.w3.org/2000/svg" xmlns:xlink="http://www.w3.org/1999/xlink" x="0px" y="0px"
	 viewBox="0 0 64 64" enable-background="new 0 0 64 64" xml:space="preserve">
<g>
	<path fill="#6DA342" d="M59.5,32c0-3.1-2-5.8-4.8-6.8v-6.8c2.8-1,4.8-3.6,4.8-6.8c0-4-3.2-7.2-7.2-7.2s-7.2,3.2-7.2,7.2
		c0,3.1,2,5.8,4.8,6.8v6.8c-2.8,1-4.8,3.6-4.8,6.8c0,3.1,2,5.8,4.8,6.8v4.3l-8.4-6.6V24.8h-2.4v-2.4c0-4-3.2-7.2-7.2-7.2
		s-7.2,3.2-7.2,7.2v0.8l-8.2-6.4c1.3-1.3,2.2-3.1,2.2-5.1c0-4-3.2-7.2-7.2-7.2c-4,0-7.2,3.2-7.2,7.2c0,3.1,2,5.8,4.8,6.8v6.8
		c-2.8,1-4.8,3.6-4.8,6.8c0,3.1,2,5.8,4.8,6.8v6.8c-2.8,1-4.8,3.6-4.8,6.8c0,4,3.2,7.2,7.2,7.2c4,0,7.2-3.2,7.2-7.2
		c0-3.1-2-5.8-4.8-6.8v-6.8c2.8-1,4.8-3.6,4.8-6.8c0-3.1-2-5.8-4.8-6.8v-4.4l8.4,6.6v14.1h17.8l7.1,5.6c-1.4,1.3-2.2,3.1-2.2,5.2
		c0,4,3.2,7.2,7.2,7.2s7.2-3.2,7.2-7.2c0-3.1-2-5.8-4.8-6.8v-6.8C57.5,37.8,59.5,35.1,59.5,32 M52.3,29.6c1.3,0,2.4,1.1,2.4,2.4
		c0,1.3-1.1,2.4-2.4,2.4c-1.3,0-2.4-1.1-2.4-2.4C49.9,30.7,51,29.6,52.3,29.6 M52.3,9.3c1.3,0,2.4,1.1,2.4,2.4s-1.1,2.4-2.4,2.4
		c-1.3,0-2.4-1.1-2.4-2.4S51,9.3,52.3,9.3 M52.3,54.7c-1.3,0-2.4-1.1-2.4-2.4c0-1.3,1.1-2.4,2.4-2.4c1.3,0,2.4,1.1,2.4,2.4
		C54.7,53.6,53.6,54.7,52.3,54.7 M27.2,29.6h9.6v7.2h-9.6V29.6z M32,20c1.3,0,2.4,1.1,2.4,2.4v2.4h-4.8v-2.4
		C29.6,21.1,30.7,20,32,20 M11.7,9.3c1.3,0,2.4,1.1,2.4,2.4s-1.1,2.4-2.4,2.4c-1.3,0-2.4-1.1-2.4-2.4S10.4,9.3,11.7,9.3 M11.7,34.4
		c-1.3,0-2.4-1.1-2.4-2.4c0-1.3,1.1-2.4,2.4-2.4c1.3,0,2.4,1.1,2.4,2.4C14.1,33.3,13,34.4,11.7,34.4 M11.7,54.7
		c-1.3,0-2.4-1.1-2.4-2.4c0-1.3,1.1-2.4,2.4-2.4c1.3,0,2.4,1.1,2.4,2.4C14.1,53.6,13,54.7,11.7,54.7"/>
</g>
</svg>
