<?xml version="1.0" encoding="utf-8"?>
<!-- Generator: Adobe Illustrator 18.1.1, SVG Export Plug-In . SVG Version: 6.00 Build 0)  -->
<svg version="1.1" id="Layer_1" xmlns="http://www.w3.org/2000/svg" xmlns:xlink="http://www.w3.org/1999/xlink" x="0px" y="0px"
	 viewBox="0 0 64 64" enable-background="new 0 0 64 64" xml:space="preserve">
<g>
	<path fill="#6D2B85" d="M18.1,0v14h-14v41.7h12c0.1,0.4,0.2,0.7,0.3,1.1L14.9,58l3.1,3.9l1.5-1.2c0.9,0.6,1.8,1.1,2.9,1.5l0,1.8
		l5,0l0-1.8c1.1-0.3,2.1-0.8,3-1.4l1.4,1.1l3.1-3.9l-1.4-1.1c0.2-0.4,0.3-0.8,0.4-1.2h12v-14h14V0H18.1z M54.9,36.7h-9V14H23.1V5
		h31.7V36.7z M40.9,41.7v9h-7.1c-0.1-0.4-0.3-0.8-0.4-1.1l1.5-1.2l-3.1-3.9l-1.6,1.3c-0.8-0.6-1.8-1-2.7-1.2l0-2.2v-0.7v-2.5v-1.9
		h13.5v1.9V41.7z M27.4,56.8c-0.4,0.3-0.8,0.4-1.3,0.6c-0.4,0.1-0.7,0.2-1.1,0.2c-0.5,0-0.9-0.1-1.3-0.2c-0.5-0.2-0.9-0.4-1.3-0.7
		c-0.3-0.3-0.6-0.6-0.8-0.9c-0.4-0.7-0.7-1.4-0.7-2.3c0-0.1,0-0.1,0-0.2c0,0,0,0,0,0c0,0,0,0,0,0c0-1,0.4-1.8,1-2.5
		c0.2-0.2,0.3-0.3,0.5-0.5c0.5-0.4,1.1-0.7,1.7-0.9c0.3-0.1,0.6-0.1,1-0.1c0.2,0,0.5,0,0.7,0.1c0.6,0.1,1.2,0.3,1.6,0.7
		c0.3,0.2,0.6,0.5,0.8,0.7c0.5,0.6,0.9,1.4,1,2.3c0,0.1,0,0.2,0,0.2c0,0.1,0,0.1,0,0.2c0,0,0,0,0,0.1c0,0.8-0.3,1.6-0.7,2.2
		C28.2,56.1,27.8,56.5,27.4,56.8 M22.4,39.2v2.5v0.7v2.2c-0.9,0.3-1.8,0.7-2.6,1.3L18,44.5l-3.1,3.9l1.7,1.4
		c-0.1,0.3-0.2,0.6-0.3,0.9H9.1V37.3h9h2.5h1.7V39.2z M40.9,32.3H27.4V19h13.5V32.3z M22.4,19v13.4h-1.7h-2.5h-9V19h9h2.5H22.4z"/>
</g>
</svg>
