<?xml version="1.0" encoding="utf-8"?>
<!-- Generator: Adobe Illustrator 18.1.1, SVG Export Plug-In . SVG Version: 6.00 Build 0)  -->
<svg version="1.1" id="Layer_1" xmlns="http://www.w3.org/2000/svg" xmlns:xlink="http://www.w3.org/1999/xlink" x="0px" y="0px"
	 viewBox="0 0 64 64" enable-background="new 0 0 64 64" xml:space="preserve">
<g>
	<path fill="#D74427" d="M40.8,9l-7.4,5.6H4.5V55h55V9H40.8z M8.8,18.9h26l7.4-5.6h12.5L44.2,24c-1.5-0.9-3.2-1.4-5-1.4
		c-5.3,0-9.5,4.3-9.5,9.5c0,1.9,0.6,3.6,1.5,5.1l-3.5,3.5l-9.3-8l-9.5,6.8V18.9z M44.4,32.1c0,2.9-2.4,5.2-5.2,5.2
		c-0.6,0-1.2-0.1-1.8-0.3c-1.4-0.5-2.5-1.6-3.1-3c-0.2-0.6-0.4-1.2-0.4-1.9c0-2.9,2.4-5.2,5.2-5.2c0.7,0,1.3,0.1,1.9,0.3
		c1.4,0.5,2.5,1.6,3,3C44.3,30.8,44.4,31.4,44.4,32.1 M55.2,50.7H8.8v-5.9l9.3-6.6l9.8,8.5l6.3-6.4c1.5,0.9,3.2,1.4,5,1.4
		c2.2,0,4.3-0.8,5.9-2.1l3.8,3.1c0.4,0.3,0.9,0.5,1.3,0.5c0.6,0,1.3-0.3,1.7-0.8c0.7-0.9,0.6-2.3-0.3-3l-3.8-3.1
		c0.6-1.3,0.9-2.6,0.9-4.1c0-1.9-0.5-3.6-1.5-5.1l7.9-8V50.7z"/>
</g>
</svg>
