<?xml version="1.0" encoding="utf-8"?>
<!-- Generator: Adobe Illustrator 18.1.1, SVG Export Plug-In . SVG Version: 6.00 Build 0)  -->
<svg version="1.1" id="Layer_1" xmlns="http://www.w3.org/2000/svg" xmlns:xlink="http://www.w3.org/1999/xlink" x="0px" y="0px"
	 viewBox="0 0 64 64" enable-background="new 0 0 64 64" xml:space="preserve">
<g>
	<path fill="#B8295B" d="M39,14.8v-2.4c0-4.7-3.7-7.2-7.3-7.2c-3.5,0-7.1,2.5-7.1,7.2v2.4H4.5v44.1h55V14.8H39z M28.9,14.8v-2.4
		c0-2.8,2.4-2.9,2.8-2.9c1.1,0,3,0.6,3,2.9v2.4v4.3v0.3h-5.8v-0.3V14.8z M55.2,54.6H8.8V19.1h15.9v4.6H39v-4.6h16.2V54.6z"/>
	<path fill="#B8295B" d="M32.7,38.6c0-1.5-0.4-2.9-1-4.1l1.9-1.5l-2.7-3.3l-2,1.6c-1-0.7-2.1-1.2-3.3-1.5l0-2.6l-4.3,0l0,2.7
		c-1.2,0.3-2.2,0.8-3.2,1.6L16,29.6L13.3,33l2.1,1.7c-0.6,1.2-0.9,2.5-0.9,3.9c0,1.3,0.3,2.5,0.8,3.6l-1.9,1.6l2.7,3.3l1.8-1.5
		c1,0.8,2.2,1.4,3.5,1.7l0,2.3l4.3,0l0-2.2c1.3-0.3,2.6-0.9,3.6-1.7l1.7,1.4l2.7-3.3l-1.7-1.4C32.4,41.2,32.7,39.9,32.7,38.6
		 M25.7,42.9C25.7,42.9,25.7,42.9,25.7,42.9c-0.7,0.3-1.4,0.5-2.1,0.5c-0.8,0-1.6-0.2-2.3-0.6c0,0,0,0,0,0c-1.3-0.7-2.2-2-2.5-3.5
		c0-0.2-0.1-0.5-0.1-0.7c0-0.4,0-0.7,0.1-1.1c0.3-1.3,1.2-2.5,2.4-3.1c0.1-0.1,0.2-0.1,0.4-0.2c0.6-0.3,1.3-0.4,1.9-0.4
		c0.6,0,1.2,0.1,1.7,0.3c0.1,0,0.2,0.1,0.2,0.1c1.3,0.6,2.3,1.7,2.6,3.1c0.1,0.4,0.2,0.9,0.2,1.3c0,0.3,0,0.6-0.1,0.9
		C28.1,41,27.1,42.2,25.7,42.9"/>
	<rect x="38.5" y="35.1" fill="#B8295B" width="11.1" height="4.3"/>
	<rect x="38.5" y="45.1" fill="#B8295B" width="7.8" height="4.3"/>
</g>
</svg>
