<?xml version="1.0" encoding="utf-8"?>
<!-- Generator: Adobe Illustrator 18.1.1, SVG Export Plug-In . SVG Version: 6.00 Build 0)  -->
<svg version="1.1" id="Whitepapers" xmlns="http://www.w3.org/2000/svg" xmlns:xlink="http://www.w3.org/1999/xlink" x="0px"
	 y="0px" viewBox="0 0 64 64" enable-background="new 0 0 64 64" xml:space="preserve">
<g>
	<path fill="#0087CC" d="M36.2,24.2c-0.5,0-0.9-0.4-0.9-0.9v-1.8c0,0,0-0.1,0-0.1H15.8c-0.5,0-0.9,0.4-0.9,0.9v27.9
		c0,0.5,0.4,0.9,0.9,0.9h21.6c0.5,0,0.9-0.4,0.9-0.9v-26c0,0-0.1,0-0.1,0H36.2z M18.2,26.8c0-0.5,0.4-0.9,0.9-0.9h10.3
		c0.5,0,0.9,0.4,0.9,0.9v5.7c0,0.5-0.4,0.9-0.9,0.9H19.1c-0.5,0-0.9-0.4-0.9-0.9V26.8z M33.9,47.4H19.1c-0.5,0-0.9-0.4-0.9-0.9
		c0-0.5,0.4-0.9,0.9-0.9h14.7c0.5,0,0.9,0.4,0.9,0.9C34.7,47,34.3,47.4,33.9,47.4z M33.9,43.8H19.1c-0.5,0-0.9-0.4-0.9-0.9
		c0-0.5,0.4-0.9,0.9-0.9h14.7c0.5,0,0.9,0.4,0.9,0.9C34.7,43.4,34.3,43.8,33.9,43.8z M33.9,40.3H19.1c-0.5,0-0.9-0.4-0.9-0.9
		c0-0.5,0.4-0.9,0.9-0.9h14.7c0.5,0,0.9,0.4,0.9,0.9C34.7,39.9,34.3,40.3,33.9,40.3z"/>
	<path fill="#0087CC" d="M46.8,15.6h-1.9c-0.5,0-0.9-0.4-0.9-0.9V13c0,0,0,0,0,0H24.5c-0.5,0-0.9,0.4-0.9,0.9v5.9h13.8
		c1.5,0,2.7,1.2,2.7,2.7v3.4h2.6c0.5,0,0.9,0.4,0.9,0.9c0,0.5-0.4,0.9-0.9,0.9H40v1.8h2.6c0.5,0,0.9,0.4,0.9,0.9
		c0,0.5-0.4,0.9-0.9,0.9H40v1.8h2.6c0.5,0,0.9,0.4,0.9,0.9c0,0.5-0.4,0.9-0.9,0.9H40v1.8h2.6c0.5,0,0.9,0.4,0.9,0.9
		c0,0.5-0.4,0.9-0.9,0.9H40v4.3h6c0.5,0,0.9-0.4,0.9-0.9V15.6C46.9,15.6,46.8,15.6,46.8,15.6z"/>
</g>
</svg>
